<?xml version="1.0" encoding="utf-8"?>
<!-- Generator: Adobe Illustrator 25.0.0, SVG Export Plug-In . SVG Version: 6.00 Build 0)  -->
<svg version="1.1" id="Calque_1" xmlns="http://www.w3.org/2000/svg" xmlns:xlink="http://www.w3.org/1999/xlink" x="0px" y="0px"
	 width="420.45px" height="143.55px" viewBox="0 0 420.45 143.55" enable-background="new 0 0 420.45 143.55" xml:space="preserve">
<g>
	<path fill="#1D2769" d="M40.89,44.92h4.81V34.38c0-1.33-1.08-2.4-2.4-2.4c-1.32,0-2.4,1.07-2.4,2.4V44.92z"/>
	<path fill="#1D2769" d="M30.78,44.92h4.8V34.38c0-1.33-1.07-2.4-2.4-2.4c-1.33,0-2.4,1.07-2.4,2.4V44.92z"/>
	<path fill="#1D2769" d="M51.01,44.92h4.8V34.38c0-1.33-1.07-2.4-2.4-2.4c-1.32,0-2.4,1.07-2.4,2.4V44.92z"/>
	<path fill="#1D2769" d="M44.5,6.12c3.2,0.56,4.4,3.38,4.4,5.34v4.09h2.93v2.32c7.66,3.6,13.09,11.63,13.09,19.86
		c0,0.06,0,0.1,0,0.16v7.06h17.72v-7.21l0,0C82.26,14.48,65.72,0.29,43.87,0L44.5,6.12z"/>
	<path fill="#1D2769" d="M44.5,6.12c3.2,0.56,4.4,3.38,4.4,5.34v4.09h2.93v2.32c7.66,3.6,13.09,11.63,13.09,19.86
		c0,0.06,0,0.1,0,0.16v7.06h17.72v-7.21l0,0C82.26,14.48,65.72,0.29,43.87,0L44.5,6.12z"/>
	<path fill="#1D2769" d="M41.15,11.33v4.22h4.31v-4.22c0-1.19-0.97-2.16-2.16-2.16C42.11,9.17,41.15,10.14,41.15,11.33"/>
	<path fill="#1D2769" d="M41.15,11.33v4.22h4.31v-4.22c0-1.19-0.97-2.16-2.16-2.16C42.11,9.17,41.15,10.14,41.15,11.33"/>
	<path fill="#1D2769" d="M46.55,56.28c-18.29-4.67-25.12-8.66-25.12-20.25c0-8.32,5.55-15.48,13.34-18.54v-1.94h2.95v-4.09
		c0-1.99,1.23-4.84,4.53-5.36l0.6-6.1C20.81,0.17,2.07,15.46,2.97,36.02c1,23.01,26.24,29.47,39.83,32.35
		c10.7,2.27,36.44,8.3,42.81,26.43C85.62,94.8,88.01,64.8,46.55,56.28"/>
	<path fill="#1D2769" d="M46.55,56.28c-18.29-4.67-25.12-8.66-25.12-20.25c0-8.32,5.55-15.48,13.34-18.54v-1.94h2.95v-4.09
		c0-1.99,1.23-4.84,4.53-5.36l0.6-6.1C20.81,0.17,2.07,15.46,2.97,36.02c1,23.01,26.24,29.47,39.83,32.35
		c10.7,2.27,36.44,8.3,42.81,26.43C85.62,94.8,88.01,64.8,46.55,56.28"/>
	<path fill="#1D2769" d="M40.47,88.23c18.44,5.62,23.16,12.46,23.16,22.17c0,14.81-11.47,20.89-25.86,20.89
		c-13.79,0-25.63-6.43-33.52-14.76c-0.04-0.04-2.93,6.08-2.93,6.08c5.8,10.96,22.1,20.94,40.29,20.94h0.02c0.01,0,0.01,0,0.02,0
		c23.3,0.2,43.12-10.71,43.12-32.69c0-23.59-25.71-32.82-39.97-35.99C33.58,72.38,5.26,64.92,0.22,49.1
		C0.22,49.1-5.4,76.53,40.47,88.23"/>
	<path fill="#1D2769" d="M40.47,88.23c18.44,5.62,23.16,12.46,23.16,22.17c0,14.81-11.47,20.89-25.86,20.89
		c-13.79,0-25.63-6.43-33.52-14.76c-0.04-0.04-2.93,6.08-2.93,6.08c5.8,10.96,22.1,20.94,40.29,20.94h0.02c0.01,0,0.01,0,0.02,0
		c23.3,0.2,43.12-10.71,43.12-32.69c0-23.59-25.71-32.82-39.97-35.99C33.58,72.38,5.26,64.92,0.22,49.1
		C0.22,49.1-5.4,76.53,40.47,88.23"/>
</g>
<g>
	<path fill="#1D2769" d="M114.5,36.48h5.35v21.87h-5.35V36.48z"/>
	<path fill="#1D2769" d="M124.38,42.6h5.08v1.38c0,0.52-0.06,0.98-0.06,0.98h0.06c0.73-1.22,2.23-2.72,5.02-2.72
		c3.18,0,5.66,1.47,5.66,5.9v10.22h-5.29v-9.24c0-1.47-0.58-2.08-1.74-2.08c-1.65,0-2.66,0.92-3.12,2.26
		c-0.21,0.61-0.31,1.32-0.31,2.08v6.98h-5.29V42.6z"/>
	<path fill="#1D2769" d="M144.88,52.85c0,0,1.74,1.59,4.01,1.59c0.8,0,1.56-0.21,1.56-0.73c0-1.38-7.37-1.53-7.37-6.67
		c0-2.97,2.85-4.8,6.49-4.8c3.67,0,5.54,1.81,5.54,1.81l-1.8,3.76c0,0-1.53-1.29-3.73-1.29c-0.8,0-1.56,0.21-1.56,0.76
		c0,1.19,7.37,1.38,7.37,6.46c0,2.69-2.39,4.99-6.46,4.99c-3.95,0-6.3-2.33-6.3-2.33L144.88,52.85z"/>
	<path fill="#1D2769" d="M159.04,47.01h-2.02v-4.13h2.17v-4.53h5.14v4.53h3.3v4.13h-3.3v4.83c0,1.77,1.8,2.02,2.81,2.02
		c0.43,0,0.7-0.03,0.7-0.03v4.59c0,0-0.58,0.09-1.44,0.09c-2.51,0-7.37-0.67-7.37-5.97V47.01z"/>
	<path fill="#1D2769" d="M170.95,42.6h5.29v15.76h-5.29V42.6z M171.01,36.48h5.17v4.13h-5.17V36.48z"/>
	<path fill="#1D2769" d="M180.95,47.01h-2.02v-4.13h2.17v-4.53h5.14v4.53h3.3v4.13h-3.3v4.83c0,1.77,1.8,2.02,2.81,2.02
		c0.43,0,0.7-0.03,0.7-0.03v4.59c0,0-0.58,0.09-1.44,0.09c-2.51,0-7.37-0.67-7.37-5.97V47.01z"/>
	<path fill="#1D2769" d="M192.64,42.6h5.29v9.24c0,1.47,0.58,2.08,1.68,2.08c2.26,0,3.33-1.99,3.33-4.34V42.6h5.29v15.76h-5.08
		v-1.38c0-0.52,0.06-0.98,0.06-0.98h-0.06c-0.86,1.68-2.82,2.72-4.93,2.72c-3.12,0-5.6-1.47-5.6-5.9V42.6z"/>
	<path fill="#1D2769" d="M212.95,47.01h-2.02v-4.13h2.17v-4.53h5.14v4.53h3.3v4.13h-3.3v4.83c0,1.77,1.81,2.02,2.81,2.02
		c0.43,0,0.7-0.03,0.7-0.03v4.59c0,0-0.58,0.09-1.44,0.09c-2.51,0-7.37-0.67-7.37-5.97V47.01z"/>
	<path fill="#1D2769" d="M231.65,42.6h5.29v9.24c0,1.47,0.58,2.08,1.68,2.08c2.26,0,3.33-1.99,3.33-4.34V42.6h5.29v15.76h-5.08
		v-1.38c0-0.52,0.06-0.98,0.06-0.98h-0.06c-0.86,1.68-2.82,2.72-4.93,2.72c-3.12,0-5.6-1.47-5.6-5.9V42.6z"/>
	<path fill="#1D2769" d="M251.17,42.6h5.08v1.38c0,0.52-0.06,0.98-0.06,0.98h0.06c0.73-1.22,2.23-2.72,5.02-2.72
		c3.18,0,5.66,1.47,5.66,5.9v10.22h-5.29v-9.24c0-1.47-0.58-2.08-1.74-2.08c-1.65,0-2.66,0.92-3.12,2.26
		c-0.21,0.61-0.31,1.32-0.31,2.08v6.98h-5.29V42.6z"/>
	<path fill="#1D2769" d="M270.63,42.6h5.29v15.76h-5.29V42.6z M270.69,36.48h5.17v4.13h-5.17V36.48z"/>
	<path fill="#1D2769" d="M277.82,42.6h5.57l2.45,8.38c0.31,1.01,0.58,2.72,0.58,2.72h0.06c0,0,0.28-1.68,0.58-2.72l2.42-8.38h5.6
		l-5.35,15.76h-6.46L277.82,42.6z"/>
	<path fill="#1D2769" d="M304.1,42.23c4.65,0,7.28,3.24,7.28,7.62c0,0.52-0.12,1.65-0.12,1.65h-9.94c0.4,1.93,1.99,2.81,3.67,2.81
		c2.26,0,4.34-1.59,4.34-1.59l1.96,3.7c0,0-2.54,2.29-6.73,2.29c-5.63,0-8.66-4.07-8.66-8.26C295.9,45.84,299.02,42.23,304.1,42.23z
		 M306.06,48.48c0-1.19-0.83-2.26-2.08-2.26c-1.53,0-2.26,1.1-2.54,2.26H306.06z"/>
	<path fill="#1D2769" d="M314.26,42.6h5.08v2.66c0,0.52-0.06,0.98-0.06,0.98h0.06c0.67-2.14,2.66-3.92,5.02-3.92
		c0.31,0,0.61,0.06,0.61,0.06v5.2c0,0-0.43-0.09-1.07-0.09c-1.25,0-3.3,0.4-4.07,2.75c-0.18,0.58-0.28,1.29-0.28,2.14v5.97h-5.29
		V42.6z"/>
	<path fill="#1D2769" d="M328.45,52.85c0,0,1.74,1.59,4.01,1.59c0.8,0,1.56-0.21,1.56-0.73c0-1.38-7.37-1.53-7.37-6.67
		c0-2.97,2.84-4.8,6.49-4.8c3.67,0,5.54,1.81,5.54,1.81l-1.81,3.76c0,0-1.53-1.29-3.73-1.29c-0.79,0-1.56,0.21-1.56,0.76
		c0,1.19,7.37,1.38,7.37,6.46c0,2.69-2.39,4.99-6.46,4.99c-3.95,0-6.3-2.33-6.3-2.33L328.45,52.85z"/>
	<path fill="#1D2769" d="M341.82,42.6h5.29v15.76h-5.29V42.6z M341.88,36.48h5.17v4.13h-5.17V36.48z"/>
	<path fill="#1D2769" d="M351.83,47.01h-2.02v-4.13h2.17v-4.53h5.14v4.53h3.3v4.13h-3.3v4.83c0,1.77,1.81,2.02,2.81,2.02
		c0.43,0,0.7-0.03,0.7-0.03v4.59c0,0-0.58,0.09-1.44,0.09c-2.51,0-7.37-0.67-7.37-5.97V47.01z"/>
	<path fill="#1D2769" d="M371.68,48.54h0.21v-0.28c0-1.32-1.01-1.74-2.33-1.74c-1.99,0-4.25,1.5-4.25,1.5l-1.84-3.73
		c0,0,2.72-2.05,6.61-2.05c4.44,0,7.1,2.42,7.1,6.42v9.7h-4.83v-0.95c0-0.52,0.06-0.98,0.06-0.98h-0.06c0,0-1.16,2.29-4.47,2.29
		c-2.94,0-5.35-1.96-5.35-5.08C362.54,49.06,369.24,48.54,371.68,48.54z M369.36,54.69c1.38,0,2.6-1.5,2.6-2.78v-0.34h-0.49
		c-1.68,0-3.61,0.49-3.61,1.81C367.86,54.1,368.32,54.69,369.36,54.69z"/>
	<path fill="#1D2769" d="M380.86,42.6h5.29v15.76h-5.29V42.6z M380.93,36.48h5.17v4.13h-5.17V36.48z"/>
	<path fill="#1D2769" d="M390.07,42.6h5.08v2.66c0,0.52-0.06,0.98-0.06,0.98h0.06c0.67-2.14,2.66-3.92,5.02-3.92
		c0.31,0,0.61,0.06,0.61,0.06v5.2c0,0-0.43-0.09-1.07-0.09c-1.25,0-3.3,0.4-4.07,2.75c-0.18,0.58-0.28,1.29-0.28,2.14v5.97h-5.29
		V42.6z"/>
	<path fill="#1D2769" d="M410.3,42.23c4.65,0,7.28,3.24,7.28,7.62c0,0.52-0.12,1.65-0.12,1.65h-9.94c0.4,1.93,1.99,2.81,3.67,2.81
		c2.26,0,4.34-1.59,4.34-1.59l1.96,3.7c0,0-2.54,2.29-6.73,2.29c-5.63,0-8.66-4.07-8.66-8.26C402.1,45.84,405.22,42.23,410.3,42.23z
		 M412.26,48.48c0-1.19-0.83-2.26-2.08-2.26c-1.53,0-2.26,1.1-2.54,2.26H412.26z"/>
	<path fill="#1D2769" d="M120,72.23c3.18,0,4.13,1.25,4.13,1.25h0.06c0,0-0.03-0.31-0.03-0.7v-6.3h5.29v21.87h-4.96v-1.04
		c0-0.49,0.03-0.89,0.03-0.89h-0.06c0,0-1.32,2.29-4.56,2.29c-4.28,0-7.1-3.37-7.1-8.26C112.81,75.48,115.81,72.23,120,72.23z
		 M121.23,84.35c1.59,0,3.09-1.16,3.09-3.89c0-1.9-1.01-3.76-3.09-3.76c-1.65,0-3.09,1.35-3.09,3.76
		C118.14,82.82,119.39,84.35,121.23,84.35z"/>
	<path fill="#1D2769" d="M134.14,66.02h4.65l-2.72,7.8h-3.58L134.14,66.02z"/>
	<path fill="#1D2769" d="M141.08,72.6h5.29v15.76h-5.29V72.6z M141.15,66.48h5.17v4.13h-5.17V66.48z"/>
	<path fill="#1D2769" d="M150.29,72.6h5.08v1.38c0,0.52-0.06,0.98-0.06,0.98h0.06c0.73-1.22,2.23-2.72,5.02-2.72
		c3.18,0,5.66,1.47,5.66,5.9v10.22h-5.29v-9.24c0-1.47-0.58-2.08-1.74-2.08c-1.65,0-2.66,0.92-3.12,2.26
		c-0.21,0.61-0.31,1.32-0.31,2.08v6.98h-5.29V72.6z"/>
	<path fill="#1D2769" d="M176.15,90.38c1.9,0,3.64-0.7,3.64-3.03v-0.52c0-0.18,0.03-0.58,0.03-0.58h-0.06
		c-0.92,1.1-2.11,1.65-3.95,1.65c-4.74,0-7.1-3.89-7.1-7.92c0-4.01,2.29-7.74,7.07-7.74c2.88,0,4.28,1.53,4.28,1.53h0.09
		c0,0-0.03-0.18-0.03-0.37v-0.8h4.96v14.32c0,5.75-4.59,7.86-8.9,7.86c-2.11,0-4.44-0.61-5.97-1.41l1.5-4.01
		C171.71,89.37,173.67,90.38,176.15,90.38z M179.91,80.04c0-2.78-1.47-3.4-3.06-3.4c-1.87,0-2.81,1.35-2.81,3.15
		c0,1.96,0.92,3.7,3.03,3.7C178.44,83.49,179.91,82.79,179.91,80.04z"/>
	<path fill="#1D2769" d="M196.06,72.23c4.65,0,7.28,3.24,7.28,7.62c0,0.52-0.12,1.65-0.12,1.65h-9.94c0.4,1.93,1.99,2.81,3.67,2.81
		c2.26,0,4.34-1.59,4.34-1.59l1.96,3.7c0,0-2.54,2.29-6.73,2.29c-5.63,0-8.66-4.07-8.66-8.26
		C187.87,75.84,190.99,72.23,196.06,72.23z M198.02,78.48c0-1.19-0.83-2.26-2.08-2.26c-1.53,0-2.26,1.1-2.54,2.26H198.02z
		 M196.22,66.48h5.23l-3.61,4.59h-4.1L196.22,66.48z"/>
	<path fill="#1D2769" d="M206.22,72.6h5.08v1.38c0,0.52-0.06,0.98-0.06,0.98h0.06c0.73-1.22,2.23-2.72,5.02-2.72
		c3.18,0,5.66,1.47,5.66,5.9v10.22h-5.29v-9.24c0-1.47-0.58-2.08-1.74-2.08c-1.65,0-2.66,0.92-3.12,2.26
		c-0.21,0.61-0.31,1.32-0.31,2.08v6.98h-5.29V72.6z"/>
	<path fill="#1D2769" d="M225.68,72.6h5.29v15.76h-5.29V72.6z M225.74,66.48h5.17v4.13h-5.17V66.48z"/>
	<path fill="#1D2769" d="M241.96,72.23c4.65,0,7.28,3.24,7.28,7.62c0,0.52-0.12,1.65-0.12,1.65h-9.94c0.4,1.93,1.99,2.81,3.67,2.81
		c2.26,0,4.34-1.59,4.34-1.59l1.96,3.7c0,0-2.54,2.29-6.73,2.29c-5.63,0-8.66-4.07-8.66-8.26
		C233.76,75.84,236.88,72.23,241.96,72.23z M243.92,78.48c0-1.19-0.83-2.26-2.08-2.26c-1.53,0-2.26,1.1-2.54,2.26H243.92z"/>
	<path fill="#1D2769" d="M252.12,72.6h5.08v2.66c0,0.52-0.06,0.98-0.06,0.98h0.06c0.67-2.14,2.66-3.92,5.02-3.92
		c0.31,0,0.61,0.06,0.61,0.06v5.2c0,0-0.43-0.09-1.07-0.09c-1.25,0-3.3,0.4-4.07,2.75c-0.18,0.58-0.28,1.29-0.28,2.14v5.97h-5.29
		V72.6z"/>
	<path fill="#1D2769" d="M265.27,72.6h5.29v15.76h-5.29V72.6z M265.33,66.48h5.17v4.13h-5.17V66.48z"/>
	<path fill="#1D2769" d="M281.55,72.23c4.65,0,7.28,3.24,7.28,7.62c0,0.52-0.12,1.65-0.12,1.65h-9.94c0.4,1.93,1.99,2.81,3.67,2.81
		c2.26,0,4.34-1.59,4.34-1.59l1.96,3.7c0,0-2.54,2.29-6.73,2.29c-5.63,0-8.66-4.07-8.66-8.26
		C273.35,75.84,276.47,72.23,281.55,72.23z M283.51,78.48c0-1.19-0.83-2.26-2.08-2.26c-1.53,0-2.26,1.1-2.54,2.26H283.51z"/>
	<path fill="#1D2769" d="M305.78,72.23c4.65,0,7.28,3.24,7.28,7.62c0,0.52-0.12,1.65-0.12,1.65H303c0.4,1.93,1.99,2.81,3.67,2.81
		c2.26,0,4.34-1.59,4.34-1.59l1.96,3.7c0,0-2.54,2.29-6.73,2.29c-5.63,0-8.66-4.07-8.66-8.26C297.58,75.84,300.7,72.23,305.78,72.23
		z M307.74,78.48c0-1.19-0.83-2.26-2.08-2.26c-1.53,0-2.26,1.1-2.54,2.26H307.74z"/>
	<path fill="#1D2769" d="M315.94,72.6h5.08v1.38c0,0.52-0.06,0.98-0.06,0.98h0.06c0.73-1.22,2.23-2.72,5.02-2.72
		c3.18,0,5.66,1.47,5.66,5.9v10.22h-5.29v-9.24c0-1.47-0.58-2.08-1.74-2.08c-1.65,0-2.66,0.92-3.12,2.26
		c-0.21,0.61-0.31,1.32-0.31,2.08v6.98h-5.29V72.6z"/>
	<path fill="#1D2769" d="M343.44,82.85c0,0,1.74,1.59,4.01,1.59c0.8,0,1.56-0.21,1.56-0.73c0-1.38-7.37-1.53-7.37-6.67
		c0-2.97,2.84-4.8,6.49-4.8c3.67,0,5.54,1.81,5.54,1.81l-1.81,3.76c0,0-1.53-1.29-3.73-1.29c-0.79,0-1.56,0.21-1.56,0.76
		c0,1.19,7.37,1.38,7.37,6.46c0,2.69-2.39,4.99-6.46,4.99c-3.95,0-6.3-2.33-6.3-2.33L343.44,82.85z"/>
	<path fill="#1D2769" d="M364.77,78.54h0.21v-0.28c0-1.32-1.01-1.74-2.33-1.74c-1.99,0-4.25,1.5-4.25,1.5l-1.84-3.73
		c0,0,2.72-2.05,6.61-2.05c4.44,0,7.1,2.42,7.1,6.42v9.7h-4.83v-0.95c0-0.52,0.06-0.98,0.06-0.98h-0.06c0,0-1.16,2.29-4.47,2.29
		c-2.94,0-5.35-1.96-5.35-5.08C355.62,79.06,362.32,78.54,364.77,78.54z M362.44,84.69c1.38,0,2.6-1.5,2.6-2.78v-0.34h-0.49
		c-1.68,0-3.61,0.49-3.61,1.81C360.95,84.1,361.4,84.69,362.44,84.69z"/>
	<path fill="#1D2769" d="M373.95,72.6h5.08v1.38c0,0.52-0.06,0.98-0.06,0.98h0.06c0.73-1.22,2.23-2.72,5.02-2.72
		c3.18,0,5.66,1.47,5.66,5.9v10.22h-5.29v-9.24c0-1.47-0.58-2.08-1.74-2.08c-1.65,0-2.66,0.92-3.12,2.26
		c-0.21,0.61-0.31,1.32-0.31,2.08v6.98h-5.29V72.6z"/>
	<path fill="#1D2769" d="M394.2,77.01h-2.02v-4.13h2.17v-4.53h5.14v4.53h3.3v4.13h-3.3v4.83c0,1.77,1.81,2.02,2.81,2.02
		c0.43,0,0.7-0.03,0.7-0.03v4.59c0,0-0.58,0.09-1.44,0.09c-2.51,0-7.37-0.67-7.37-5.97V77.01z"/>
	<path fill="#1D2769" d="M413.17,72.23c4.65,0,7.28,3.24,7.28,7.62c0,0.52-0.12,1.65-0.12,1.65h-9.94c0.4,1.93,1.99,2.81,3.67,2.81
		c2.26,0,4.34-1.59,4.34-1.59l1.96,3.7c0,0-2.54,2.29-6.73,2.29c-5.63,0-8.66-4.07-8.66-8.26
		C404.97,75.84,408.09,72.23,413.17,72.23z M415.13,78.48c0-1.19-0.83-2.26-2.08-2.26c-1.53,0-2.26,1.1-2.54,2.26H415.13z
		 M413.33,66.48h5.23l-3.61,4.59h-4.1L413.33,66.48z"/>
</g>
<g>
	<path fill="#E6342A" d="M111.99,115.93c0,0,1.57,1.59,3.76,1.59c1.38,0,2.55-0.77,2.55-2.17c0-3.2-7.15-2.51-7.15-7.04
		c0-2.3,1.99-4.12,4.77-4.12c2.74,0,4.18,1.48,4.18,1.48l-0.94,1.71c0,0-1.36-1.27-3.24-1.27c-1.57,0-2.68,0.98-2.68,2.15
		c0,3.05,7.15,2.24,7.15,7.02c0,2.28-1.76,4.16-4.68,4.16c-3.14,0-4.89-1.94-4.89-1.94L111.99,115.93z"/>
	<path fill="#E6342A" d="M129.95,104.18c4.26,0,7.57,3.28,7.57,7.53c0,4.35-3.3,7.73-7.57,7.73s-7.59-3.39-7.59-7.73
		C122.36,107.46,125.68,104.18,129.95,104.18z M129.95,117.54c3.01,0,5.44-2.51,5.44-5.83c0-3.22-2.42-5.64-5.44-5.64
		s-5.46,2.42-5.46,5.64C124.49,115.03,126.94,117.54,129.95,117.54z"/>
	<path fill="#E6342A" d="M140.53,104.43h4.52c1.55,0,2.19,0.13,2.76,0.33c1.5,0.56,2.49,2.05,2.49,3.99c0,1.88-1.04,3.47-2.65,3.99
		v0.04c0,0,0.17,0.19,0.44,0.67l3.14,5.73h-2.34l-3.11-5.87h-3.16v5.87h-2.07V104.43z M145.56,111.52c1.61,0,2.61-1.02,2.61-2.68
		c0-1.09-0.42-1.86-1.17-2.28c-0.4-0.21-0.88-0.33-2.03-0.33h-2.38v5.29H145.56z"/>
	<path fill="#E6342A" d="M153.92,104.43h5.16c2.49,0,4.29,1.38,4.29,3.76c0,1.44-0.71,2.59-1.84,3.18v0.04
		c1.55,0.46,2.42,1.92,2.42,3.57c0,2.78-2.15,4.2-4.75,4.2h-5.29V104.43z M159.09,110.64c1.34,0,2.17-0.94,2.17-2.24
		c0-1.3-0.79-2.17-2.22-2.17h-3.05v4.41H159.09z M159.32,117.39c1.59,0,2.53-1,2.53-2.51c0-1.5-1-2.53-2.55-2.53h-3.3v5.04H159.32z"
		/>
	<path fill="#E6342A" d="M173.76,104.18c4.26,0,7.57,3.28,7.57,7.53c0,4.35-3.3,7.73-7.57,7.73s-7.59-3.39-7.59-7.73
		C166.17,107.46,169.5,104.18,173.76,104.18z M173.76,117.54c3.01,0,5.44-2.51,5.44-5.83c0-3.22-2.42-5.64-5.44-5.64
		s-5.46,2.42-5.46,5.64C168.31,115.03,170.75,117.54,173.76,117.54z"/>
	<path fill="#E6342A" d="M184.34,104.43h2.05l6.56,9.6c0.54,0.79,1.23,2.13,1.23,2.13h0.04c0,0-0.15-1.32-0.15-2.13v-9.6h2.07v14.76
		h-2.03l-6.59-9.57c-0.54-0.82-1.23-2.15-1.23-2.15h-0.04c0,0,0.15,1.32,0.15,2.15v9.57h-2.07V104.43z"/>
	<path fill="#E6342A" d="M200.16,104.43h2.05l6.56,9.6c0.54,0.79,1.23,2.13,1.23,2.13h0.04c0,0-0.15-1.32-0.15-2.13v-9.6h2.07v14.76
		h-2.03l-6.58-9.57c-0.54-0.82-1.23-2.15-1.23-2.15h-0.04c0,0,0.15,1.32,0.15,2.15v9.57h-2.07V104.43z"/>
	<path fill="#E6342A" d="M215.99,104.43h8.57v1.8h-6.5v4.62h5.29v1.8h-5.29v4.75h6.86v1.8h-8.93V104.43z"/>
	<path fill="#E6342A" d="M233.13,104.43h2.07v9.53c0,2.26,1.46,3.58,3.72,3.58c2.28,0,3.76-1.32,3.76-3.62v-9.49h2.07v9.53
		c0,3.28-2.36,5.48-5.81,5.48s-5.81-2.2-5.81-5.48V104.43z"/>
	<path fill="#E6342A" d="M248.56,104.43h2.05l6.56,9.6c0.54,0.79,1.23,2.13,1.23,2.13h0.04c0,0-0.15-1.32-0.15-2.13v-9.6h2.07v14.76
		h-2.03l-6.58-9.57c-0.54-0.82-1.23-2.15-1.23-2.15h-0.04c0,0,0.15,1.32,0.15,2.15v9.57h-2.07V104.43z"/>
	<path fill="#E6342A" d="M264.38,104.43h2.07v14.76h-2.07V104.43z"/>
	<path fill="#E6342A" d="M268.58,104.43h2.24l3.66,10.43c0.27,0.79,0.56,2.03,0.56,2.03h0.04c0,0,0.29-1.23,0.56-2.03l3.7-10.43
		h2.19l-5.43,14.76h-2.07L268.58,104.43z"/>
	<path fill="#E6342A" d="M283.67,104.43h8.57v1.8h-6.5v4.62h5.29v1.8h-5.29v4.75h6.86v1.8h-8.93V104.43z"/>
	<path fill="#E6342A" d="M295.65,104.43h4.52c1.55,0,2.19,0.13,2.76,0.33c1.51,0.56,2.49,2.05,2.49,3.99c0,1.88-1.05,3.47-2.66,3.99
		v0.04c0,0,0.17,0.19,0.44,0.67l3.14,5.73h-2.34l-3.11-5.87h-3.16v5.87h-2.07V104.43z M300.69,111.52c1.61,0,2.61-1.02,2.61-2.68
		c0-1.09-0.42-1.86-1.17-2.28c-0.4-0.21-0.88-0.33-2.03-0.33h-2.38v5.29H300.69z"/>
	<path fill="#E6342A" d="M309.09,115.93c0,0,1.57,1.59,3.76,1.59c1.38,0,2.55-0.77,2.55-2.17c0-3.2-7.15-2.51-7.15-7.04
		c0-2.3,1.99-4.12,4.77-4.12c2.74,0,4.18,1.48,4.18,1.48l-0.94,1.71c0,0-1.36-1.27-3.24-1.27c-1.57,0-2.68,0.98-2.68,2.15
		c0,3.05,7.15,2.24,7.15,7.02c0,2.28-1.76,4.16-4.68,4.16c-3.14,0-4.89-1.94-4.89-1.94L309.09,115.93z"/>
	<path fill="#E6342A" d="M320.46,104.43h2.07v14.76h-2.07V104.43z"/>
	<path fill="#E6342A" d="M329.7,106.23h-5.06v-1.8h12.19v1.8h-5.06v12.96h-2.07V106.23z"/>
	<path fill="#E6342A" d="M338.94,104.43h8.57v1.8h-6.5v4.62h5.29v1.8h-5.29v4.75h6.86v1.8h-8.93V104.43z M344.09,100.75h2.17
		l-2.01,2.65h-1.69L344.09,100.75z"/>
</g>
</svg>
